<?xml version="1.0" standalone="no"?><!DOCTYPE svg PUBLIC "-//W3C//DTD SVG 1.1//EN" "http://www.w3.org/Graphics/SVG/1.1/DTD/svg11.dtd"><svg t="1695691480148" class="icon" viewBox="0 0 1024 1024" version="1.1" xmlns="http://www.w3.org/2000/svg" p-id="9246" xmlns:xlink="http://www.w3.org/1999/xlink" width="200" height="200"><path d="M703.419826 488.643338h-78.367092v-87.150795h78.367092a8.19729 8.19729 0 0 0 8.733795-8.733795v-17.367774a8.19729 8.19729 0 0 0-8.733795-8.733795h-78.367092V323.150405a8.19729 8.19729 0 0 0-8.733795-8.733795h-17.367774a8.19729 8.19729 0 0 0-8.733795 8.733795v165.492933h-26.064139a8.19729 8.19729 0 0 0-8.733794 8.733794v174.176821a8.209767 8.209767 0 0 0 8.733794 8.733794h95.772298a52.402768 52.402768 0 0 0 52.265523-52.277999V497.339702a8.297105 8.297105 0 0 0-8.771226-8.696364z m-26.101569 139.341456a17.467589 17.467589 0 0 1-17.392728 17.405205h-64.442928c-3.468564 0-5.2278-1.771713-5.2278-5.240277v-111.480651c0-3.456087 1.759236-5.2278 5.2278-5.2278h76.607856c3.456087 0 5.2278 1.771713 5.2278 5.2278zM513.572083 645.389999c-6.999513-1.771713-17.405205-6.937128-33.101082-17.405205-33.101082-26.101569-31.341846-52.265523-31.341846-52.265523V392.796179a8.19729 8.19729 0 0 0-8.733795-8.733795h-17.367774a8.19729 8.19729 0 0 0-8.733795 8.733795l-1.771713 182.923092s0 34.860318-24.392241 53.962374c-13.936641 8.733795-27.873282 13.936641-34.935179 15.708354a7.48611 7.48611 0 0 0-6.999512 6.999513v17.392728c0 5.240277 5.240277 8.733795 10.468077 8.733795 12.164928-1.771713 31.341846-5.240277 43.581635-13.936641 27.860805-17.467589 33.101082-34.935179 33.101082-34.935179s5.2278 15.708354 34.872795 33.101082c15.708354 10.468077 31.329369 13.936641 41.797446 13.936641 5.240277 0 10.480554-3.468564 10.480554-8.733795v-17.330344c0.087338-1.759236-3.40618-3.468564-6.924652-5.2278z" fill="#30ABF1" p-id="9247"></path><path d="M511.451019 0.648796C233.304611 0.648796 7.074374 222.849011 0.548981 499.423336V524.027683c6.525392 276.561848 232.755629 498.762063 510.902038 498.762063 282.251292 0 511.051759-228.800468 511.051759-511.05176S793.70231 0.648796 511.451019 0.648796zM812.79189 685.640316a79.539916 79.539916 0 0 1-79.552393 79.552393H365.309679l-122.984306 67.08802V307.853787A79.539916 79.539916 0 0 1 321.877766 228.326348h411.399162A79.527439 79.527439 0 0 1 812.79189 307.853787z" fill="#30ABF1" p-id="9248"></path><path d="M355.053709 593.111999h17.405205a8.209767 8.209767 0 0 0 8.733795-8.733794V356.226533a7.48611 7.48611 0 0 1 7.011989-7.01199h90.606882a7.48611 7.48611 0 0 1 6.924652 7.01199V584.415635a8.209767 8.209767 0 0 0 8.733794 8.733795h17.392729a8.209767 8.209767 0 0 0 8.733794-8.733795V331.884199a17.367775 17.367775 0 0 0-17.492543-17.467589h-104.468661c-29.644995 0-52.278 22.633005-52.278 52.265523V584.415635a8.209767 8.209767 0 0 0 8.696364 8.696364z" fill="#30ABF1" p-id="9249"></path></svg>